# xmcd
#
# Track frame offsets:
#	150
#	11561
#	25632
#	39378
#	54212
#	68027
#	81430
#	97947
#	112291
#	126656
#
# Disc length: 1907 seconds
#
# Revision: 2
# Processed by: cddbd v1.5.2PL0 Copyright (c) Steve Scherf et al.
# Submitted via: audiograbber 1.83.01
#
DISCID=7e07710a
DTITLE=Kathy Mattea  - Kathy Mattea 
DYEAR=1984
DGENRE=Country
TTITLE0=Street Talk
TTITLE1=Someone Is Falling in Love
TTITLE2=You've Got a Soft Place to Fal
TTITLE3=Takin' the Givin' Away
TTITLE4=You Know That I Do (And I Know
TTITLE5=Full Time Love
TTITLE6=Somewhere Down the Road
TTITLE7=That's Easy for You to Say
TTITLE8=(Back to the) Heartbreak Kid
TTITLE9=God Ain't No Stained Glass Win
EXTD=
EXTT0=
EXTT1=
EXTT2=
EXTT3=
EXTT4=
EXTT5=
EXTT6=
EXTT7=
EXTT8=
EXTT9=
PLAYORDER=
